<?xml version="1.0" encoding="UTF-8"?>
<!DOCTYPE svg PUBLIC "-//W3C//DTD SVG 1.1//EN" "http://www.w3.org/Graphics/SVG/1.1/DTD/svg11.dtd">
<!-- Creator: CorelDRAW -->
<svg xmlns="http://www.w3.org/2000/svg" xml:space="preserve" width="5.23912in" height="5.23913in" style="shape-rendering:geometricPrecision; text-rendering:geometricPrecision; image-rendering:optimizeQuality; fill-rule:evenodd; clip-rule:evenodd"
viewBox="0 0 5.29027 5.29028"
 xmlns:xlink="http://www.w3.org/1999/xlink">
 <defs>
  <style type="text/css">
   <![CDATA[
    .fil0 {fill:#FE002A}
   ]]>
  </style>
 </defs>
 <g id="Layer_x0020_1">
  <metadata id="CorelCorpID_0Corel-Layer"/>
  <path id="_253309600" class="fil0" d="M2.56213 3.27382c-0.499117,0 -0.773682,-0.73188 -0.361905,-1.09733 0.431022,-0.382529 1.0736,-0.0685288 1.0736,0.409352l0 0.687975 -0.711696 0 0 0z"/>
  <path id="_253309864" class="fil0" d="M4.08039 2.63328c0,-0.735621 -0.643466,-1.42339 -1.37595,-1.42339l-0.213505 0c-0.578889,0 -1.28106,0.677981 -1.28106,1.2336l0 0.379572c0,0.649612 0.733482,1.25733 1.44712,1.25733l0.616802 0 0 1.20989 -0.498187 0c-1.53692,0 -2.77562,-1.07877 -2.77562,-2.58583l0 -0.142341c0,-1.30918 1.20167,-2.56211 2.46721,-2.56211l0.308403 0c1.28859,0 2.51466,1.2668 2.51466,2.56211l0 2.72817 -1.20989 0 0 -2.657 0 -3.97545e-006z"/>
 </g>
</svg>
